HIERARCHY
ROOT Hips
{
	OFFSET 0.000000 0.000000 0.000000 
	CHANNELS 6 Xposition Yposition Zposition Zrotation Yrotation Xrotation
	JOINT LeftUpLeg
	{
		OFFSET 1.363060 -1.794630 0.839290 
		CHANNELS 3 Zrotation Yrotation Xrotation
		JOINT LeftLeg
		{
			OFFSET 2.448110 -6.726130 0.000000 
			CHANNELS 3 Zrotation Yrotation Xrotation
			JOINT LeftFoot
			{
				OFFSET 2.562200 -7.039590 0.000000 
				CHANNELS 3 Zrotation Yrotation Xrotation
				JOINT LeftToeBase
				{
					OFFSET 0.157640 -0.433110 2.322550 
					CHANNELS 3 Zrotation Yrotation Xrotation
					End Site
					{
						OFFSET 0.000000 0.000000 0.000000 
					}
				}
			}
		}
	}
	JOINT RightUpLeg
	{
		OFFSET -1.305520 -1.794630 0.839290 
		CHANNELS 3 Zrotation Yrotation Xrotation
		JOINT RightLeg
		{
			OFFSET -2.542530 -6.985550 0.000000 
			CHANNELS 3 Zrotation Yrotation Xrotation
			JOINT RightFoot
			{
				OFFSET -2.568260 -7.056230 0.000000 
				CHANNELS 3 Zrotation Yrotation Xrotation
				JOINT RightToeBase
				{
					OFFSET -0.164730 -0.452590 2.363150 
					CHANNELS 3 Zrotation Yrotation Xrotation
					End Site
					{
						OFFSET 0.000000 0.000000 0.000000 
					}
				}
			}
		}
	}
	JOINT Spine
	{
		OFFSET 0.028270 2.035590 -0.193380 
		CHANNELS 3 Zrotation Yrotation Xrotation
		JOINT Spine1
		{
			OFFSET 0.056720 2.048850 -0.042750 
			CHANNELS 3 Zrotation Yrotation Xrotation
			JOINT Neck1
			{
				OFFSET -0.054170 1.746240 0.172020 
				CHANNELS 3 Zrotation Yrotation Xrotation
				JOINT Head
				{
					OFFSET 0.104070 1.761360 -0.123970 
					CHANNELS 3 Zrotation Yrotation Xrotation
					End Site
					{
						OFFSET 0.000000 0.000000 0.000000 
					}
				}
			}
			JOINT LeftArm
			{
				OFFSET 3.362410 1.200890 -0.311210 
				CHANNELS 3 Zrotation Yrotation Xrotation
				JOINT LeftForeArm
				{
					OFFSET 4.983000 -0.000000 -0.000000 
					CHANNELS 3 Zrotation Yrotation Xrotation
					JOINT LeftHand
					{
						OFFSET 3.483560 -0.000000 -0.000000 
						CHANNELS 3 Zrotation Yrotation Xrotation
						JOINT LeftHandIndex1
						{
							OFFSET 0.715260 -0.000000 -0.000000 
							CHANNELS 3 Zrotation Yrotation Xrotation
							End Site
							{
								OFFSET 0.000000 0.000000 0.000000 
							}
						}
					}
				}
			}
			JOINT RightArm
			{
				OFFSET -3.136600 1.374050 -0.404650 
				CHANNELS 3 Zrotation Yrotation Xrotation
				JOINT RightForeArm
				{
					OFFSET -5.241900 -0.000000 -0.000000 
					CHANNELS 3 Zrotation Yrotation Xrotation
					JOINT RightHand
					{
						OFFSET -3.444170 -0.000000 -0.000000 
						CHANNELS 3 Zrotation Yrotation Xrotation
						JOINT RightHandIndex1
						{
							OFFSET -0.622530 -0.000000 -0.000000 
							CHANNELS 3 Zrotation Yrotation Xrotation
							End Site
							{
								OFFSET 0.000000 0.000000 0.000000 
							}
						}
					}
				}
			}
		}
	}
}
MOTION
Frames: 7
Frame Time: 0.041667
1.136783 25.318444 1.462812 -1.091239 -4.316002 6.810295 -16.263324 -6.906028 -9.621581 0.464959 4.480043 14.255058 -4.672268 29.544411 22.183598 0.196400 2.854000 7.872500 25.301342 16.688225 -4.445918 -2.883376 -5.939012 19.883200 5.087338 -32.390864 26.160895 -0.119800 -2.231500 6.146000 -5.793405 0.523129 7.632232 1.504817 0.902569 -8.543178 6.138532 -0.093087 3.959413 3.080600 0.179400 3.141500 -61.179819 -26.090073 28.674823 55.225904 -53.957824 -31.912608 0.190020 -0.821497 -6.810429 -7.125000 0.000000 0.000000 53.525402 31.906321 27.497742 -31.822209 37.737222 -13.730344 0.471364 0.933827 10.326145 7.125000 0.000000 0.000000 
1.144559 25.523508 1.480669 -1.495780 -3.911011 7.024532 -16.037719 -6.472908 -10.742977 0.566690 4.705563 14.865635 -4.466758 29.095798 22.729742 0.155700 2.542900 7.008500 25.672632 16.697636 -4.757240 -2.780560 -5.780896 19.448107 5.009886 -31.917851 26.123648 -0.106600 -2.104800 5.795400 -4.723641 0.359391 7.512969 1.274807 0.808124 -8.454225 6.021421 -0.044417 3.398769 3.060400 0.195400 2.992800 -61.810939 -25.103389 28.413277 52.470584 -52.985620 -29.550808 0.170578 -0.823846 -6.953889 -7.125000 0.000000 0.000000 54.079056 31.103822 27.166935 -30.762808 36.831175 -12.892516 0.512878 0.883061 10.416000 7.125000 0.000000 0.000000 
1.158575 25.713788 1.506494 -2.121228 -3.943398 7.087226 -15.656555 -5.937055 -11.804114 0.694457 4.967984 15.584951 -4.334342 28.828037 23.113578 0.101600 2.055800 5.660000 26.194950 16.890353 -4.963856 -2.734636 -5.693074 19.240269 4.669913 -31.003208 26.795806 -0.065700 -1.653300 4.548400 -3.452648 0.405102 8.261716 0.821535 0.791106 -8.252782 6.083386 0.026656 2.439022 3.092100 0.218900 2.772400 -62.261287 -24.223279 28.107786 50.066176 -52.032191 -27.506570 0.150048 -0.820053 -7.087336 -7.125000 0.000000 0.000000 54.586506 30.450757 26.764339 -30.048655 36.156126 -12.296217 0.550813 0.863206 10.360996 7.125000 0.000000 0.000000 
1.172880 25.888227 1.506782 -2.706905 -3.915473 6.694737 -15.247542 -5.478812 -12.488509 0.831267 5.243105 16.334824 -4.019837 28.202147 24.003750 0.065500 1.650700 4.541300 26.764519 16.884602 -4.880882 -2.752429 -5.687713 19.266226 4.192175 -30.046587 28.012311 -0.042500 -1.330800 3.659400 -2.431797 0.409869 9.329584 0.415888 0.761296 -8.564082 5.706671 -0.002686 1.870082 2.975500 0.196900 2.639700 -62.631870 -23.294778 27.933853 48.089351 -51.205487 -25.856223 0.132932 -0.817910 -7.291052 -7.125000 0.000000 0.000000 55.236588 29.632659 26.290557 -29.575752 35.737729 -11.917628 0.570426 0.852926 10.575218 7.125000 0.000000 0.000000 
1.188337 26.052106 1.477212 -3.061485 -3.714758 5.986433 -14.983524 -5.355873 -12.787134 0.959950 5.493387 17.044215 -3.592938 27.307669 25.155926 0.065300 1.649000 4.536400 27.139607 16.717681 -4.684125 -2.817348 -5.760456 19.508056 3.667164 -29.123394 29.408731 -0.033400 -1.178800 3.240900 -1.519072 0.282205 10.151229 0.183842 0.692905 -9.427397 5.449045 -0.048922 2.110193 2.919000 0.178900 2.691900 -63.043553 -22.181050 27.856181 46.374542 -50.474471 -24.453946 0.120840 -0.824334 -7.523309 -7.125000 0.000000 0.000000 55.882313 28.606261 26.040226 -29.108128 35.395840 -11.598051 0.575998 0.843430 10.595656 7.125000 0.000000 0.000000 
1.200241 26.205904 1.430843 -3.257128 -3.423075 5.201391 -14.750308 -5.922584 -12.738997 1.066807 5.688908 17.636841 -3.370898 26.783632 25.699053 0.072300 1.735000 4.774000 27.421910 16.796188 -4.477710 -2.921789 -5.894300 19.930805 3.244803 -28.509365 30.594877 -0.031400 -1.143900 3.144900 -0.860363 0.108758 10.855364 0.078491 0.619565 -10.481049 5.584959 -0.097819 2.526187 2.984800 0.165900 2.782300 -63.355340 -21.141214 27.830409 44.769531 -49.756873 -23.157076 0.106747 -0.834822 -7.677059 -7.125000 0.000000 0.000000 56.422820 27.805575 26.003643 -28.311654 34.726948 -11.033495 0.610506 0.828298 10.185588 7.125000 0.000000 0.000000 
1.204849 26.347126 1.390617 -3.515574 -3.203601 4.658433 -14.377782 -6.889228 -12.614512 1.134133 5.813427 17.996494 -3.332657 26.719066 25.815695 0.043000 1.337800 3.678700 27.802471 17.191951 -4.461222 -3.053872 -6.073842 20.496674 2.902385 -28.102028 31.574998 -0.030200 -1.121500 3.083100 -0.314370 -0.009815 11.175335 0.001403 0.569752 -11.341517 5.490632 -0.208728 2.934994 2.957700 0.118100 2.852300 -63.565519 -20.188940 27.858364 43.114249 -48.958059 -21.840674 0.084947 -0.839722 -7.681660 -7.125000 0.000000 0.000000 56.933373 27.084409 26.103482 -27.316654 33.810501 -10.314719 0.675282 0.811486 9.601668 7.125000 0.000000 0.000000 
